<?xml version="1.0" encoding="UTF-8" standalone="no"?><!-- Generator: Gravit.io --><svg xmlns="http://www.w3.org/2000/svg" xmlns:xlink="http://www.w3.org/1999/xlink" style="isolation:isolate" viewBox="-761 -2230.25 1022.75 580.257" width="1022.75pt" height="580.257pt"><defs><clipPath id="_clipPath_p9QJ3guuPKWQvFFz9y8hkm1j5eY5w7Sq"><rect x="-761" y="-2230.25" width="1022.75" height="580.257"/></clipPath></defs><g clip-path="url(#_clipPath_p9QJ3guuPKWQvFFz9y8hkm1j5eY5w7Sq)"><g><g><defs><filter id="54oEWCI3ig6DQXjy1KwGZaNoDCwsg7gR" x="-200%" y="-200%" width="400%" height="400%" filterUnits="objectBoundingBox" color-interpolation-filters="sRGB"><feGaussianBlur xmlns="http://www.w3.org/2000/svg" in="SourceGraphic" stdDeviation="2.146804531419514"/><feOffset xmlns="http://www.w3.org/2000/svg" dx="-10" dy="2" result="pf_100_offsetBlur"/><feFlood xmlns="http://www.w3.org/2000/svg" flood-color="#000000" flood-opacity="0.65"/><feComposite xmlns="http://www.w3.org/2000/svg" in2="pf_100_offsetBlur" operator="in" result="pf_100_dropShadow"/><feBlend xmlns="http://www.w3.org/2000/svg" in="SourceGraphic" in2="pf_100_dropShadow" mode="normal"/></filter></defs><g filter="url(#54oEWCI3ig6DQXjy1KwGZaNoDCwsg7gR)"><path d=" M -436.332 -2140.023 L -528.908 -2179.405 L -568.244 -2196.138 C -584.207 -2194.028 -595.856 -2196.697 -603.221 -2204.173 C -621.584 -2202.792 -623.332 -2215.848 -630.203 -2222.25 L -647.191 -2222.25 L -670.176 -2181.073 C -655.561 -2173.792 -661.432 -2156.719 -674.173 -2169.022 C -677.774 -2171.319 -680.095 -2169.97 -681.169 -2165.005 C -685.734 -2163.771 -686.39 -2161.753 -683.167 -2158.979 C -675.858 -2156.92 -670.852 -2153.228 -668.177 -2147.931 C -667.437 -2144.537 -668.093 -2143.188 -670.176 -2143.914 C -673.565 -2143.085 -674.554 -2141.401 -673.174 -2138.893 C -669.801 -2136.884 -674.298 -2131.486 -677.171 -2133.871 L -680.294 -2137.01 L -694.16 -2137.888 C -697.706 -2136.628 -698.695 -2135.279 -697.158 -2133.871 C -693.411 -2131.863 -693.286 -2127.971 -697.158 -2128.85 C -702.488 -2128.347 -704.477 -2130.011 -703.154 -2133.871 C -702.155 -2137.135 -703.144 -2139.05 -706.152 -2139.646 C -711.231 -2138.057 -714.927 -2138.256 -717.27 -2140.274 C -721.669 -2140.741 -722.949 -2139.266 -721.142 -2135.88 C -716.812 -2134.373 -716.802 -2133.024 -721.142 -2131.863 L -724.847 -2130.828 C -725.416 -2129.129 -727.169 -2128.627 -730.136 -2129.352 L -739.13 -2126.841 C -741.628 -2125 -741.618 -2123.316 -739.13 -2121.82 C -734.572 -2123.584 -730.232 -2122.905 -726.139 -2119.811 C -720.8 -2119.233 -717.459 -2117.549 -716.145 -2114.789 L -714.147 -2111.776 C -712.481 -2109.935 -711.139 -2109.925 -710.149 -2111.776 C -710.816 -2112.948 -710.139 -2113.608 -708.151 -2113.785 L -704.153 -2111.776 C -702.904 -2110.075 -701.229 -2110.065 -699.157 -2111.776 C -698.324 -2113.952 -697.315 -2113.942 -696.159 -2111.776 Q -695.698 -2108.728 -696.159 -2108.764 Q -696.619 -2108.799 -700.156 -2104.746 C -694.2 -2096.224 -686.377 -2094.258 -685.166 -2097.716 C -682.375 -2100.13 -680.033 -2100.79 -678.171 -2099.725 L -668.177 -2096.712 C -666.085 -2096.33 -663.41 -2092.972 -660.183 -2086.669 L -659.183 -2081.647 C -662.515 -2078.634 -663.171 -2075.946 -661.182 -2073.613 C -661.529 -2071.434 -660.853 -2068.746 -659.183 -2065.578 C -657.844 -2062.311 -657.834 -2059.288 -659.183 -2056.54 L -664.18 -2050.514 L -665.179 -2045.492 C -667.463 -2044.688 -668.923 -2044.104 -669.591 -2042.432 C -670.609 -2038.042 -669.188 -2036.318 -664.18 -2038.462 C -662.511 -2045.354 -659.836 -2048.022 -656.185 -2046.497 C -652.55 -2045.869 -651.207 -2043.851 -652.188 -2040.471 C -652.526 -2038.872 -654.692 -2038.349 -654.692 -2038.349 C -655.981 -2038.498 -657.517 -2036.428 -658.119 -2033.73 L -658.184 -2033.441 C -658.977 -2032.157 -660.125 -2031.977 -661.662 -2032.934 C -662.745 -2033.521 -664.094 -2033.427 -665.367 -2033.19 C -665.846 -2031.599 -665.773 -2029.999 -665.179 -2028.419 C -667.097 -2026.543 -669.086 -2025.863 -671.175 -2026.411 C -673.494 -2023.205 -675.816 -2021.187 -678.171 -2020.385 C -678.212 -2019.297 -679.202 -2018.952 -681.169 -2019.38 C -682.509 -2017.856 -684.268 -2016.569 -686.478 -2015.551 C -688.024 -2015.005 -689.242 -2015.267 -690.163 -2016.367 L -696.159 -2016.367 C -696.293 -2013.824 -697.615 -2011.805 -700.156 -2010.342 L -702.311 -2010.624 C -703.685 -2010.216 -704.341 -2009.588 -703.716 -2008.113 L -702.061 -2006.607 Q -702.316 -2001.769 -701.842 -2001.523 C -700.031 -2000.581 -697.845 -1998.447 -694.566 -1994.555 L -694.16 -1988.247 L -698.688 -1987.619 C -699.566 -1987.564 -700 -1986.646 -699.75 -1985.077 L -699.032 -1982.001 C -700.224 -1979.393 -701.922 -1978.118 -704.153 -1978.204 L -709.15 -1977.2 C -712.251 -1974.449 -714.573 -1971.091 -716.145 -1967.157 C -716.7 -1966.476 -717.887 -1965.807 -719.737 -1965.179 C -722.375 -1964.168 -722.75 -1962.233 -721.454 -1959.907 C -718.059 -1955.722 -714.614 -1952.438 -711.149 -1950.083 L -713.147 -1947.07 C -716.506 -1946.41 -717.496 -1943.721 -716.145 -1939.036 C -715.561 -1936.88 -715.551 -1934.862 -716.145 -1933.01 C -717.597 -1930.058 -716.92 -1927.369 -714.147 -1924.976 C -712.807 -1922.682 -711.954 -1919.282 -711.617 -1914.807 C -703.924 -1902.789 -700.159 -1892.242 -699.898 -1884.654 C -699.344 -1883.768 -698.421 -1883.138 -697.158 -1882.795 C -695.789 -1882.146 -694.446 -1880.127 -693.161 -1876.769 C -691.756 -1872.658 -689.748 -1869.635 -687.165 -1867.73 C -685.656 -1863.582 -683.647 -1860.894 -681.169 -1859.696 C -674.95 -1850.862 -669.61 -1845.83 -665.179 -1844.631 L -663.181 -1835.593 L -659.496 -1832.564 L -659.636 -1828.986 L -662.181 -1827.558 C -662.724 -1824.187 -661.673 -1822.372 -657.809 -1821.736 C -656.516 -1823.371 -655.298 -1824.297 -654.187 -1824.545 C -652.436 -1824.988 -650.761 -1823.974 -649.19 -1821.532 L -641.555 -1820.512 C -637.827 -1817.161 -634.21 -1814.986 -630.734 -1814.016 C -628.048 -1813.511 -625.711 -1813.5 -623.754 -1814.016 C -621.813 -1816.239 -619.622 -1816.391 -617.211 -1814.502 L -616.105 -1812.279 C -615.613 -1811.289 -614.319 -1810.571 -613.218 -1810.676 L -608.342 -1811.144 C -603.64 -1807.883 -600.923 -1807.653 -600.223 -1810.485 C -596.742 -1810.849 -593.833 -1810.902 -591.526 -1810.673 L -589.826 -1808.328 C -588.205 -1806.089 -584.935 -1805.377 -582.529 -1806.739 L -581.236 -1807.472 C -578.014 -1807.997 -573.158 -1806.496 -566.698 -1803 C -561.278 -1797.675 -553.789 -1792.461 -544.26 -1787.386 C -544.266 -1785.022 -544.902 -1783.396 -546.228 -1782.568 C -546.624 -1781.381 -546.489 -1780.382 -545.853 -1779.603 L -535.641 -1774.66 L -523.79 -1757.806 C -517.684 -1748.237 -511.839 -1741.013 -506.286 -1736.166 C -507.459 -1731.854 -507.449 -1728.496 -506.286 -1726.123 C -506.12 -1725.48 -504.403 -1723.232 -501.258 -1721.886 C -500.93 -1718.779 -496.573 -1718.732 -496.292 -1721.102 C -496.494 -1722.642 -495.484 -1723.636 -493.294 -1724.115 C -492.931 -1726.311 -492.328 -1727.41 -491.514 -1727.441 C -492.264 -1729.419 -488.985 -1733.514 -487.298 -1739.179 L -488.188 -1745.001 C -485.037 -1749.825 -480.067 -1753.9 -473.308 -1757.257 C -468.164 -1757.439 -464.823 -1759.102 -463.314 -1762.278 C -461.972 -1765.773 -462.628 -1767.436 -465.313 -1767.3 C -470.341 -1766.515 -470.341 -1774.895 -465.313 -1775.334 C -461.857 -1775.19 -459.182 -1774.175 -457.318 -1772.321 C -454.202 -1769.796 -451.933 -1770.325 -450.297 -1772.704 C -449.984 -1773.16 -449.884 -1773.951 -450.074 -1774.47 L -450.713 -1776.213 C -452.218 -1778.456 -451.069 -1779.769 -447.575 -1780.215 L -445.561 -1779.556 C -446.019 -1780.727 -445.441 -1781.183 -444.327 -1781.36 L -444.327 -1783.369 C -444.297 -1784.452 -443.288 -1785.446 -441.329 -1786.382 L -440.33 -1790.399 C -437.391 -1791.566 -435.049 -1793.23 -433.334 -1795.42 C -430.133 -1795.086 -427.791 -1795.746 -426.339 -1797.429 C -424.541 -1800.619 -424.911 -1802.214 -427.479 -1802.247 C -427.904 -1802.555 -427.356 -1803.055 -427.76 -1803.282 C -430.128 -1803.519 -432.866 -1804.365 -434.693 -1803.894 C -435.476 -1803.788 -436.252 -1803.077 -437.332 -1802.451 C -437.268 -1801.202 -438.924 -1800.858 -442.328 -1801.446 C -443.744 -1801.76 -444.067 -1802.754 -443.328 -1804.459 L -437.332 -1808.476 C -435.533 -1809.844 -436.2 -1810.859 -438.675 -1812.18 L -442.328 -1813.498 C -443.938 -1816.28 -444.912 -1818.325 -445.279 -1819.665 C -440.119 -1823.128 -438.459 -1826.084 -440.33 -1828.562 L -448.324 -1835.593 L -470.2 -1834.871 C -471.587 -1838.376 -474.278 -1841.285 -478.304 -1843.627 C -479.71 -1844.539 -481.902 -1844.561 -484.909 -1843.721 C -491.162 -1845.467 -496.279 -1848.104 -500.29 -1851.661 L -505.895 -1851.63 C -507.607 -1854.781 -509.846 -1857.345 -512.641 -1859.351 L -512.282 -1861.705 L -509.284 -1862.709 C -508.05 -1864.137 -508.503 -1865.314 -510.673 -1866.271 C -515.002 -1867.005 -517.527 -1868.151 -518.278 -1869.739 C -519.115 -1874.151 -520.957 -1876.861 -523.836 -1877.899 C -533.861 -1877.711 -539.248 -1889.668 -533.268 -1889.825 C -531.185 -1890.71 -531.323 -1892.041 -533.712 -1893.848 C -536.116 -1898.288 -538.59 -1902.74 -537.232 -1907.68 C -542.666 -1910.181 -538.985 -1915.631 -541.409 -1925.171 C -542.498 -1926.554 -543.193 -1928.069 -544.889 -1929.369 C -550.273 -1928.951 -551.989 -1932.932 -548.57 -1937.31 C -547.674 -1938.04 -546.181 -1934.438 -543.261 -1934.014 C -534.088 -1930.059 -531.039 -1923.662 -532.549 -1916.737 C -533.814 -1911.371 -529.786 -1907.887 -521.447 -1904.45 C -519.342 -1903.906 -516.998 -1904.226 -514.28 -1903.885 C -510.502 -1898.046 -506.057 -1898.036 -500.977 -1903.885 C -498.541 -1905.519 -496.303 -1905.509 -494.294 -1903.885 C -492.453 -1903.182 -489.89 -1902.494 -486.638 -1901.854 C -484.094 -1900.34 -489.695 -1896.947 -486.268 -1893.905 C -478.952 -1893.551 -469.431 -1891.663 -468.514 -1883.878 C -467.031 -1880.867 -465.086 -1879.631 -462.709 -1880.201 L -453.009 -1875.31 C -454.435 -1867.967 -452.77 -1865.65 -446.451 -1866.977 C -443.096 -1861.881 -439.62 -1859.972 -436.051 -1861.281 C -435.583 -1856.526 -424.902 -1851.536 -419.75 -1844.474 C -416.21 -1842.242 -410.399 -1842.484 -402.066 -1843.392 C -399.549 -1845.062 -395.089 -1845.028 -388.716 -1843.321 C -387.044 -1843.132 -386.704 -1841.611 -387.724 -1838.788 C -388.537 -1837.157 -387.332 -1835.368 -385.624 -1832.87 C -378.696 -1829.803 -377.392 -1827.69 -381.408 -1825.385 C -387.464 -1821.808 -385.955 -1817.702 -376.911 -1813.098 C -373.695 -1806.846 -370.664 -1802.98 -367.849 -1801.53 C -364.513 -1799.158 -361.106 -1794.812 -357.658 -1788.524 C -357.273 -1786.711 -352.951 -1785.84 -355.649 -1779.07 C -357.904 -1774.224 -363.807 -1773.271 -364.861 -1765.538 C -367.35 -1764.021 -368.851 -1761.802 -369.474 -1758.961 C -367.207 -1753.936 -367.497 -1750.895 -370.564 -1749.983 C -371.501 -1748.167 -371.501 -1747.002 -368.023 -1745.625 C -363.962 -1746.351 -363.432 -1744.431 -364.974 -1740.027 C -365.206 -1738.211 -363.702 -1736.972 -360.552 -1736.369 C -356.626 -1736.552 -354.367 -1735.008 -353.885 -1731.808 C -354.684 -1726.735 -350.493 -1723.669 -347.095 -1721.745 L -336.087 -1714.354 C -333.228 -1717.263 -331.402 -1716.787 -330.638 -1712.956 C -331.168 -1708.328 -323.392 -1706.163 -321.518 -1708.705 C -316.574 -1707.933 -311.884 -1708.121 -307.481 -1709.301 L -290.259 -1704.425 C -284.458 -1704.049 -279.915 -1702.755 -276.658 -1700.573 C -271.788 -1700.468 -266.604 -1699.277 -261.137 -1697.03 C -250.275 -1695.925 -243.438 -1693.835 -240.655 -1690.79 C -236.81 -1687.458 -232.865 -1685.552 -228.815 -1686.485 C -228.932 -1688.154 -229.615 -1689.113 -230.892 -1689.392 C -234.73 -1690.598 -238.558 -1692.887 -234.061 -1693.829 C -229.824 -1692.936 -225.942 -1690.133 -222.444 -1685.449 C -219.821 -1681.4 -216.354 -1676.128 -217.479 -1673.209 C -220.57 -1672.173 -220.985 -1669.055 -214.949 -1669.16 C -213.336 -1668.628 -212.94 -1667.769 -213.793 -1666.614 C -212.206 -1664.067 -209.892 -1663.314 -206.877 -1664.363 C -203.576 -1660.418 -200.46 -1662.889 -198.647 -1663.982 Q -197.899 -1663.572 -195.047 -1662.469 L 148.025 -1661.993 L 147.528 -1696.747 L 172.386 -1704.28 C 177.383 -1706.498 177.226 -1708.622 171.886 -1710.682 C 168.602 -1712.561 167.467 -1714.831 168.451 -1717.524 C 170.179 -1720.181 169.044 -1722.452 165.016 -1724.366 C 164.664 -1728.453 166.256 -1731.205 169.763 -1732.651 C 170.66 -1731.969 171.771 -1732.139 173.065 -1733.192 C 174.187 -1742.714 177.846 -1743.301 184.012 -1734.983 C 185.419 -1734.116 187.175 -1734.04 189.25 -1734.785 L 193.379 -1731.701 C 200.76 -1732.655 203.993 -1730.238 203.046 -1724.48 C 207.422 -1724.933 209.811 -1723.146 210.183 -1719.148 C 213.733 -1717.461 220.854 -1720.6 218.525 -1712.916 C 217.878 -1708.254 221.828 -1705.574 230.347 -1704.907 C 231.513 -1701.936 234.188 -1701.382 238.342 -1703.275 C 242.345 -1700.878 244.229 -1703.63 243.963 -1711.561 C 246.045 -1711.896 246.638 -1714.564 245.712 -1719.595 C 246.586 -1722.859 248.887 -1723.268 252.582 -1720.851 C 255.33 -1713.821 263.325 -1720.349 255.206 -1725.496 L 244.705 -1732.515 C 240.216 -1739.054 240.465 -1749.097 228.848 -1742.694 C 225.392 -1742.68 222.695 -1743.703 220.728 -1745.706 C 213.713 -1744.668 208.22 -1746.409 204.24 -1749.725 C 195.375 -1750.177 190.291 -1752.904 188.952 -1758.202 C 183.729 -1765.106 183.219 -1770.542 187.376 -1775.209 C 185.844 -1777.607 184.147 -1777.91 182.254 -1776.15 C 179.881 -1773.514 176.685 -1773.713 172.636 -1776.778 C 160.488 -1790.128 151.004 -1802.986 144.155 -1815.381 C 129.343 -1830.362 121.733 -1842.591 121.295 -1852.101 C 120.296 -1857.499 117.807 -1858.87 113.8 -1856.244 C 112.239 -1855.741 110.437 -1855.606 108.366 -1855.867 C 107.148 -1856.809 105.837 -1854.925 106.118 -1852.101 C 98.815 -1853.05 93.422 -1857.246 89.91 -1864.717 C 80.43 -1879.692 72.197 -1890.229 62.74 -1896.918 C 51.092 -1916.188 30.532 -1937.941 16.997 -1958.542 C 2.624 -1979.961 -10.824 -1993.163 -13.626 -2006.339 C -15.685 -2013.876 -18.928 -2020.398 -23.365 -2025.905 C -28.628 -2032.229 -28.821 -2036.568 -29.101 -2039.217 C -37.411 -2054.254 -41.977 -2068.838 -42.595 -2082.652 C -45.048 -2083.765 -46.704 -2083.085 -47.592 -2080.643 C -47.042 -2080.35 -46.811 -2065.222 -48.672 -2065.642 C -48.977 -2065.334 -57.051 -2070.479 -57.383 -2070.985 C -58.559 -2072.775 -60.963 -2079.963 -60.244 -2085.107 C -60.904 -2089.957 -52.672 -2091.366 -49.895 -2089.133 C -47.998 -2087.265 -46.231 -2087.71 -44.625 -2090.498 C -45.328 -2094.793 -46.934 -2098.447 -49.474 -2101.49 C -52.004 -2109.864 -53.595 -2115.919 -54.275 -2119.685 C -58.233 -2130.113 -64.727 -2135.525 -73.786 -2135.95 C -74.383 -2133.373 -74.502 -2130.468 -73.75 -2129.171 L -69.851 -2119.532 C -71.194 -2115.93 -71.36 -2113.131 -70.378 -2111.164 C -65.777 -2100.15 -70.202 -2093.887 -78.072 -2092.381 L -89.502 -2092.381 L -95.872 -2087.861 L -102.993 -2088.238 L -108.478 -2086.113 C -110.35 -2082.024 -114.411 -2080.437 -120.691 -2081.382 C -126.859 -2072.288 -132.13 -2070.233 -136.533 -2075.245 C -143.903 -2069.658 -150.888 -2065.569 -152.272 -2074.303 C -158.13 -2076.34 -162.429 -2084.44 -170.448 -2087.345 C -170.635 -2094.264 -173.185 -2096.56 -178.13 -2094.264 C -176.818 -2090.121 -177.801 -2088.308 -184.875 -2092.193 C -189.372 -2089.933 -187.124 -2082.589 -196.305 -2088.803 C -201.192 -2085.039 -204.43 -2084.904 -206.049 -2088.426 C -207.111 -2090.686 -208.537 -2092.182 -210.358 -2092.946 C -214.075 -2092.82 -217.757 -2093.194 -221.41 -2094.072 C -226.037 -2090.979 -229.649 -2092.35 -232.281 -2098.218 C -237.826 -2098.792 -237.653 -2102.106 -231.791 -2108.193 C -230.033 -2109.203 -229.936 -2110.952 -231.532 -2113.471 C -232.593 -2116.359 -235.769 -2120.24 -241.088 -2125.146 L -251.138 -2126.28 L -256.078 -2130.984 C -261.426 -2131.451 -264.653 -2133.468 -265.788 -2137.063 C -267.28 -2138.259 -267.507 -2140.591 -268.445 -2141.717 C -272.005 -2143.035 -272.255 -2145.46 -271.556 -2147.663 C -269.808 -2150.61 -271.384 -2153.515 -276.314 -2156.405 C -279.597 -2151.878 -283.585 -2149.169 -288.306 -2148.308 C -291.468 -2142.724 -294.831 -2142.15 -298.424 -2146.613 L -302.921 -2146.425 L -312.665 -2160.171 L -319.785 -2159.606 L -326.343 -2165.444 L -335.15 -2165.632 C -336.971 -2173.491 -339.508 -2174.478 -347.704 -2169.21 L -369.252 -2180.32 L -436.332 -2140.023 Z " fill="rgb(168,219,168)" vector-effect="non-scaling-stroke" stroke-width="2" stroke="rgb(121,189,154)" stroke-linejoin="miter" stroke-linecap="square" stroke-miterlimit="3"/></g></g><g><path d=" M -667.68 -1918.069 Q -659.298 -1917.398 -654.44 -1913.185 Q -652.49 -1911.608 -653.099 -1907.459 Q -654.868 -1902.162 -658.127 -1898.364 L -656.116 -1895.669 C -659.758 -1893.236 -661.114 -1888.924 -661.311 -1884.721 L -661.311 -1884.721 L -664.328 -1883.711 Q -666.515 -1885.555 -667.009 -1889.1 Q -671.701 -1888.931 -674.551 -1886.911 Q -674.272 -1880.736 -676.394 -1876.974 Q -678.221 -1878.339 -681.925 -1877.816 L -682.428 -1878.658 L -684.104 -1878.995 L -684.942 -1878.49 L -685.78 -1875.963 L -687.791 -1875.29 C -688.118 -1878.519 -688.939 -1881.763 -690.64 -1884.553 L -690.64 -1884.553 L -688.629 -1890.279 Q -689.74 -1892.699 -689.634 -1896.343 Q -689.247 -1901.681 -686.785 -1904.932 Q -686.115 -1903.922 -684.104 -1904.259 L -679.579 -1907.459 L -677.735 -1911.669 L -674.383 -1909.985 L -674.048 -1913.017 C -672.651 -1913.114 -671.213 -1913.517 -670.194 -1914.533 L -670.194 -1914.533 L -667.68 -1918.069 Z " fill="rgb(207,240,158)" vector-effect="non-scaling-stroke" stroke-width="2" stroke="rgb(121,189,154)" stroke-linejoin="miter" stroke-linecap="square" stroke-miterlimit="3"/></g></g><path d=" M -529.5 -2177.375 L -534.125 -2170.875 L -542 -2170.625 C -560.75 -2141.125 -569 -2150.375 -572.888 -2145.981 C -575.99 -2143.425 -578.684 -2139.38 -581 -2133.875 C -587.125 -2130.25 -594.125 -2140.5 -594 -2129.5 C -581 -2120.375 -581.75 -2108 -567.07 -2105.34 C -557.808 -2105.83 -552.696 -2101.243 -551.765 -2091.608 C -550.887 -2086.433 -547.428 -2083.329 -541.419 -2082.326 C -522.5 -2083.5 -517.375 -2094.25 -504 -2078.75 C -498.75 -2064.25 -462.625 -2081 -461.375 -2045.875 C -460.46 -2039.216 -457.325 -2035.164 -452 -2033.75 C -447.375 -2033 -449.5 -2029.75 -443 -2025.25 C -438.625 -2021.5 -436.75 -2034 -406.25 -2007.125 C -402.875 -2005 -400.407 -2002.282 -400.5 -1997 C -392.378 -1989.829 -391.852 -1983.032 -398.954 -1976.638 C -399.487 -1972.797 -399.242 -1969.699 -398.25 -1967.375 C -394.684 -1961.052 -395.882 -1955.625 -401.875 -1951.125 C -404.34 -1951.349 -406 -1953.75 -405.875 -1956.125 C -407.638 -1955.812 -412.019 -1957.384 -414.625 -1955.875 C -419.125 -1951.125 -425.187 -1949.687 -427.375 -1943.375 C -429.25 -1937.5 -421.531 -1942.344 -424.644 -1929.179 C -427.439 -1925.531 -428.565 -1920.84 -428.125 -1917 C -426.936 -1915.12 -424.562 -1912.25 -425.812 -1910.625 C -442.253 -1906.089 -447.059 -1894.552 -439.812 -1892.437 C -438.885 -1891.49 -439.824 -1890.315 -443.437 -1890.125 C -447.184 -1890.615 -454.248 -1905.111 -460.375 -1904.062 C -462.52 -1902.791 -468.158 -1903.512 -469.062 -1905 C -477.484 -1905.907 -480.318 -1907.339 -485.562 -1902.625" fill="none" vector-effect="non-scaling-stroke" stroke-width="2" stroke="rgb(121,189,154)" stroke-linejoin="miter" stroke-linecap="square" stroke-miterlimit="3"/><path d=" M -509.625 -1864.125 C -514.577 -1863.842 -516.442 -1860.41 -515.25 -1853.859 C -518.156 -1848.948 -526.277 -1847.609 -531.315 -1845.768 C -534.832 -1842.328 -535.008 -1842.434 -538.619 -1845.802 C -540.978 -1847.004 -543.057 -1846.105 -544.882 -1844.609 C -546.125 -1843 -547.75 -1843.031 -549.521 -1843.644 C -551.667 -1843.904 -553.372 -1843.445 -552.783 -1840.427 C -552.094 -1837.969 -554.6 -1837.506 -555.187 -1835.578 C -554.329 -1834.616 -553.761 -1833.631 -553.514 -1832.651 C -551.548 -1830.185 -548.51 -1829.568 -544.75 -1829.75 C -535.021 -1830.803 -528.028 -1826.317 -523.802 -1816.322 C -523.738 -1814.74 -522.256 -1813.362 -519.378 -1812.211 C -514.575 -1811.582 -513.859 -1809.998 -517.29 -1807.52 C -518.562 -1806.389 -518.977 -1805.15 -518.563 -1803.834 C -517.847 -1801.274 -518.753 -1798.611 -521.312 -1795.875 C -523 -1791.937 -513.5 -1787.062 -523.25 -1784.687 L -523 -1777.812 L -526.75 -1779.312 C -527.062 -1772.312 -525.375 -1774.125 -533.062 -1777.187 L -535 -1775.812" fill="none" vector-effect="non-scaling-stroke" stroke-width="2" stroke="rgb(121,189,154)" stroke-linejoin="miter" stroke-linecap="square" stroke-miterlimit="3"/><path d=" M -216.5 -2092 C -216.562 -1960.125 -216.316 -1885.834 -219.827 -1870.498 L -220 -1859 C -220.125 -1853.812 -231 -1854.937 -227.125 -1846.125 C -228.319 -1843.657 -230.25 -1842.5 -232.308 -1839.826 C -236.75 -1835.875 -244.875 -1836.125 -250.875 -1834.5 C -258.814 -1830.413 -264.547 -1828.574 -268.854 -1830.013 C -275.706 -1832.626 -281.661 -1833.111 -286.75 -1831.5 C -291.5 -1834.5 -293.25 -1828.125 -304 -1830.75 C -307.167 -1830.375 -308.99 -1828.74 -309.5 -1825.875 C -313.5 -1823.75 -315.875 -1828.25 -318.25 -1822 C -324.375 -1818 -329.25 -1822.875 -328.719 -1809.963 C -332.2 -1806.312 -334.95 -1804.564 -337 -1804.75 L -345.875 -1814.75 C -351.5 -1817.375 -358.25 -1811.875 -361.75 -1818 C -366.125 -1817.875 -368.031 -1819.969 -367.5 -1824.5 C -367.781 -1830.5 -360.875 -1823.625 -358.75 -1838.375 C -352.258 -1840.225 -346.792 -1842.378 -343.25 -1846.75 C -328.5 -1850.875 -329 -1856.5 -334.25 -1862.125 C -339.25 -1865.5 -338.625 -1856.25 -341.75 -1858.75 C -351.827 -1868.074 -361.334 -1884.299 -365.625 -1893.75 C -367.843 -1898.634 -358.5 -1900.875 -367.279 -1908.235 C -366.81 -1913.835 -365.214 -1918.786 -362.928 -1921.073 C -359.042 -1925.189 -360.612 -1928.568 -365.391 -1933.125 C -365.391 -1939.875 -368.89 -1941.161 -373.5 -1940.25 C -393.75 -1928.062 -396.488 -1944.537 -401 -1950.5" fill="none" vector-effect="non-scaling-stroke" stroke-width="2" stroke="rgb(121,189,154)" stroke-linejoin="miter" stroke-linecap="square" stroke-miterlimit="3"/><path d=" M -227.375 -1844 C -218.375 -1846.75 -218.939 -1840.56 -214 -1840.375 C -211.374 -1840.276 -209.285 -1844.634 -206.25 -1844.25 L -192.375 -1844.25 C -178.823 -1848.061 -172.688 -1852.801 -174 -1858.5 C -172.455 -1862.379 -171.82 -1866.077 -172.125 -1869.625 L -177.375 -1873.875 C -178.024 -1875.07 -175.881 -1877.426 -177.125 -1879.75 C -179.023 -1883.296 -182 -1888 -188 -1893.75 C -192.493 -1898.017 -191.233 -1901.34 -184.25 -1903.75 C -174.875 -1899.5 -174.25 -1905.25 -170.5 -1904.875 C -164.96 -1902.809 -160.582 -1905.28 -157.896 -1910.569 C -158.546 -1915.598 -154.07 -1917.44 -143.25 -1915.875 C -135.316 -1923.028 -128.722 -1930.351 -124.75 -1938.125 L -124.594 -1949.437 C -121.273 -1953.361 -121.533 -1956.657 -124.687 -1959.375 C -125.105 -1963.121 -125.911 -1965.702 -127.834 -1967.109 C -134.06 -1976.377 -131.678 -1984.227 -119.906 -1992.562 C -115.437 -1995.469 -118.687 -2003.437 -119.062 -2007.187 C -117.735 -2010.075 -117.95 -2012.908 -119.737 -2015.719 C -121.681 -2018.281 -121.703 -2021.209 -119.831 -2024.531 C -118.398 -2027.157 -118.413 -2029.49 -119.906 -2031.562 C -121.219 -2035.594 -120.476 -2037.841 -119.437 -2040.937 C -118.795 -2042.854 -119.806 -2046.725 -118.5 -2048.625 C -117.194 -2050.525 -114.75 -2052 -112.687 -2052.75 C -107.437 -2057.25 -100.969 -2061.281 -95.437 -2062.687 C -80.062 -2060.625 -80.096 -2066.515 -91.312 -2072.062 C -93.106 -2076.255 -85.875 -2081.437 -94.312 -2088.187" fill="none" vector-effect="non-scaling-stroke" stroke-width="2" stroke="rgb(121,189,154)" stroke-linejoin="miter" stroke-linecap="square" stroke-miterlimit="3"/><path d=" M -142.75 -1915.875 C -154.914 -1898.296 -151.654 -1882.161 -133 -1867.5 C -125.501 -1851.084 -131.658 -1842.407 -151.5 -1841.5 C -160.867 -1838.039 -170 -1836 -170.544 -1830.403 C -175.326 -1825.108 -174.808 -1819.855 -169.023 -1814.679 C -174.046 -1814.042 -176.111 -1810.639 -177.75 -1802.5 C -194.415 -1790.246 -198.362 -1782.75 -188 -1782.75 C -186.218 -1785.137 -179.924 -1787.285 -170.75 -1786.5 C -165.75 -1786.5 -161 -1770.5 -154.181 -1773.739 C -156 -1769.25 -147.992 -1762.736 -142.5 -1758.75 C -140.372 -1757.205 -136.75 -1758 -134.75 -1754.5 C -131.365 -1750.336 -128.959 -1752.82 -128.25 -1754 C -123.047 -1755.627 -119.703 -1751.367 -118.25 -1741.25 C -115.101 -1735.317 -109.767 -1733.093 -102.278 -1734.608 C -98.562 -1734.562 -96.147 -1732.787 -95.062 -1729.312 C -89.437 -1728.562 -86.302 -1726.052 -85.687 -1721.812 C -86.062 -1716.125 -83.427 -1715.552 -77.812 -1720.125 C -64.125 -1715.812 -69 -1741.5 -50.437 -1716.562 C -37.672 -1712.906 -26.427 -1707.052 -16.734 -1699.031 Q -7.594 -1691.437 0 -1662.375 L -135.937 -1662.656 Q -139.042 -1678.692 -147 -1675.5 C -146.26 -1668.05 -150.578 -1670.394 -159.328 -1680.187 C -164.807 -1682.02 -169.344 -1685.713 -172.969 -1691.297 C -177.779 -1694.308 -180.91 -1698.986 -182.391 -1705.359 C -183.125 -1708.25 -194.344 -1702.969 -188.252 -1713.805 C -186.609 -1719.07 -190.832 -1723.526 -198.404 -1723.232 C -206.733 -1721.648 -210.197 -1724.864 -208.828 -1732.911 C -208.242 -1739.508 -211.162 -1742.29 -217.617 -1741.289 C -222.5 -1740.875 -227.5 -1739.5 -233.25 -1741.25 C -238.577 -1742.864 -242.814 -1742.575 -247.875 -1741.125 C -250.472 -1741.525 -251.406 -1742.776 -251.75 -1744.5 C -252.183 -1747.176 -254.521 -1748.281 -257.75 -1748.25 C -261.302 -1746.386 -265.312 -1746.056 -269.796 -1747.279 C -270.774 -1748.865 -275.482 -1748.403 -276 -1746.656 C -282.096 -1740.647 -281.153 -1747.702 -284.812 -1746.656 C -287.01 -1746.089 -284.815 -1742.373 -284.906 -1739.906 C -285.057 -1735.849 -286.555 -1732.445 -288.187 -1731.844 C -290.686 -1731.983 -291.069 -1731.105 -291.281 -1729.219 L -293.625 -1725.469 C -296.384 -1725.259 -298.219 -1725.518 -299.161 -1726.278 C -300.907 -1728.563 -303.114 -1728.877 -305.812 -1727.25 C -312.656 -1726.594 -316.031 -1728.844 -319.406 -1726.687 C -323.487 -1725.317 -327.258 -1727.807 -330.75 -1733.437 C -333.375 -1744.312 -332.078 -1750.625 -333.281 -1751.719 C -338.302 -1754.115 -340.854 -1757.105 -340.969 -1760.719 C -339.996 -1765.224 -340.079 -1769.526 -341.25 -1773.656 C -345.263 -1780.999 -343.02 -1783.92 -334.781 -1782.656 C -326.856 -1782.985 -325.806 -1787.51 -331.647 -1796.246 C -336.906 -1800 -338.941 -1802.616 -337.781 -1804.125" fill="none" vector-effect="non-scaling-stroke" stroke-width="2" stroke="rgb(121,189,154)" stroke-linejoin="miter" stroke-linecap="square" stroke-miterlimit="3"/><path d=" M -20.25 -1702.969 C -25.447 -1714.253 -27.077 -1721.602 -25.172 -1725.047 C -20.354 -1728.844 -18.001 -1731.834 -18.141 -1734.047 C -18.113 -1739.695 -15.525 -1744.185 -10.406 -1747.547 C -4.219 -1749.797 -6.328 -1753.453 -4.641 -1755 C 3.234 -1757.531 0.422 -1763.156 0.844 -1767.234 C 9.994 -1780.427 19.895 -1793.027 30.516 -1805.062 L 30.094 -1810.547 C 24.129 -1825.289 22.358 -1833.763 24.75 -1836 C 28.534 -1837.027 30.015 -1838.404 29.166 -1840.161 C 27.736 -1842.409 28.478 -1844.387 31.359 -1846.125 C 33.918 -1848.603 33.309 -1849.885 29.5 -1850 L -49.5 -1849 L -150.5 -1898" fill="none" vector-effect="non-scaling-stroke" stroke-width="2" stroke="rgb(121,189,154)" stroke-linejoin="miter" stroke-linecap="square" stroke-miterlimit="3"/><g><path d=" M -695.121 -1953.986 C -699.441 -1959.383 -702.004 -1966.107 -702.004 -1973.394 C -702.004 -1991.157 -686.768 -2005.579 -668.002 -2005.579 C -649.236 -2005.579 -634 -1991.157 -634 -1973.394 C -634 -1966.107 -636.564 -1959.383 -640.883 -1953.986 L -653.313 -1932.457 L -668.002 -1907.014 L -682.692 -1932.457 L -695.121 -1953.986 Z  M -682.491 -1977.721 C -682.491 -1985.718 -675.999 -1992.21 -668.002 -1992.21 C -660.005 -1992.21 -653.513 -1985.718 -653.513 -1977.721 C -653.513 -1969.724 -660.005 -1963.232 -668.002 -1963.232 C -675.999 -1963.232 -682.491 -1969.724 -682.491 -1977.721 Z " fill-rule="evenodd" fill="rgb(200,28,21)"/><defs><filter id="iTyXW7NBqQMFZzcUQuA78HHLCAhgYOOU" x="-200%" y="-200%" width="400%" height="400%" filterUnits="objectBoundingBox" color-interpolation-filters="sRGB"><feGaussianBlur xmlns="http://www.w3.org/2000/svg" stdDeviation="4.293609062839028"/></filter></defs><g filter="url(#iTyXW7NBqQMFZzcUQuA78HHLCAhgYOOU)"><ellipse vector-effect="non-scaling-stroke" cx="-668.0021477649572" cy="-1906.241253098297" rx="28.012449418206643" ry="11.591358379947678" fill="rgb(23,23,23)" fill-opacity="0.3"/></g></g></g></svg>