<?xml version="1.0" encoding="UTF-8" standalone="no"?><!-- Generator: Gravit.io --><svg xmlns="http://www.w3.org/2000/svg" xmlns:xlink="http://www.w3.org/1999/xlink" style="isolation:isolate" viewBox="-161.149 -2338.125 1028.649 588.218" width="1028.649pt" height="588.218pt"><defs><clipPath id="_clipPath_jMLSRy7aPQjJg4zelV5JE8DXlmrqjHMO"><rect x="-161.149" y="-2338.125" width="1028.649" height="588.218"/></clipPath></defs><g clip-path="url(#_clipPath_jMLSRy7aPQjJg4zelV5JE8DXlmrqjHMO)"><g filter="url(#xrVbeF8XHLvAQz5SoNc19IZoUMHDoqDx)"><g><path d=" M 178.594 -2219.387 L 54.876 -2271.756 C 39.905 -2269.788 28.979 -2272.278 22.072 -2279.254 C 4.85 -2277.966 3.21 -2290.15 -3.234 -2296.125 L -19.167 -2296.125 L -40.724 -2257.697 C -27.017 -2250.902 -32.523 -2234.969 -44.473 -2246.45 C -47.85 -2248.594 -50.027 -2247.335 -51.034 -2242.701 C -55.316 -2241.551 -55.931 -2239.667 -52.909 -2237.078 C -46.054 -2235.157 -41.358 -2231.711 -38.85 -2226.768 C -38.156 -2223.601 -38.771 -2222.342 -40.724 -2223.019 C -43.903 -2222.245 -44.831 -2220.674 -43.536 -2218.333 C -40.373 -2216.458 -44.591 -2211.42 -47.285 -2213.646 L -50.214 -2216.575 L -63.218 -2217.395 C -66.544 -2216.219 -67.472 -2214.96 -66.03 -2213.646 C -62.516 -2211.772 -62.398 -2208.14 -66.03 -2208.96 C -71.029 -2208.491 -72.894 -2210.044 -71.654 -2213.646 C -70.717 -2216.692 -71.644 -2218.48 -74.466 -2219.036 C -79.229 -2217.552 -82.696 -2217.738 -84.893 -2219.621 C -89.018 -2220.058 -90.22 -2218.681 -88.524 -2215.521 C -84.463 -2214.115 -84.454 -2212.856 -88.524 -2211.772 L -91.999 -2210.807 C -92.533 -2209.221 -94.177 -2208.752 -96.96 -2209.429 L -105.395 -2207.086 C -107.738 -2205.367 -107.729 -2203.796 -105.395 -2202.399 C -101.121 -2204.046 -97.05 -2203.412 -93.211 -2200.525 C -88.204 -2199.985 -85.07 -2198.414 -83.838 -2195.838 L -81.964 -2193.027 C -80.402 -2191.308 -79.142 -2191.299 -78.215 -2193.027 C -78.839 -2194.12 -78.205 -2194.736 -76.34 -2194.901 L -72.591 -2193.027 C -71.419 -2191.439 -69.848 -2191.43 -67.905 -2193.027 C -67.124 -2195.057 -66.177 -2195.048 -65.093 -2193.027 Q -64.661 -2190.182 -65.093 -2190.215 Q -65.525 -2190.248 -68.842 -2186.466 C -63.256 -2178.512 -55.919 -2176.678 -54.783 -2179.905 C -52.165 -2182.158 -49.969 -2182.773 -48.222 -2181.78 L -38.85 -2178.968 C -36.887 -2178.611 -34.379 -2175.478 -31.352 -2169.595 L -30.414 -2164.909 C -33.539 -2162.097 -34.154 -2159.589 -32.289 -2157.411 C -32.614 -2155.378 -31.98 -2152.869 -30.414 -2149.913 C -29.159 -2146.864 -29.149 -2144.043 -30.414 -2141.478 L -35.101 -2135.854 L -36.038 -2131.168 C -38.179 -2130.417 -39.549 -2129.872 -40.175 -2128.312 C -41.131 -2124.215 -39.797 -2122.606 -35.101 -2124.607 C -33.535 -2131.038 -31.026 -2133.528 -27.603 -2132.105 C -24.193 -2131.52 -22.934 -2129.636 -23.854 -2126.481 C -24.171 -2124.989 -26.202 -2124.502 -26.202 -2124.502 C -27.411 -2124.641 -28.853 -2122.704 -29.419 -2120.181 L -29.477 -2119.921 C -30.22 -2118.723 -31.297 -2118.555 -32.739 -2119.448 C -33.755 -2119.995 -35.02 -2119.908 -36.214 -2119.686 C -36.663 -2118.202 -36.595 -2116.709 -36.038 -2115.234 C -37.837 -2113.483 -39.702 -2112.849 -41.662 -2113.36 C -43.836 -2110.369 -46.014 -2108.485 -48.222 -2107.736 C -48.261 -2106.721 -49.189 -2106.399 -51.034 -2106.799 C -52.291 -2105.376 -53.941 -2104.176 -56.013 -2103.226 C -57.463 -2102.716 -58.606 -2102.96 -59.469 -2103.987 L -65.093 -2103.987 C -65.219 -2101.613 -66.459 -2099.729 -68.842 -2098.364 L -70.863 -2098.627 C -72.152 -2098.247 -72.767 -2097.661 -72.181 -2096.284 L -70.629 -2094.878 Q -70.868 -2090.363 -70.424 -2090.133 C -68.725 -2089.255 -66.675 -2087.263 -63.599 -2083.631 L -63.218 -2077.744 L -67.465 -2077.158 C -68.289 -2077.107 -68.696 -2076.25 -68.461 -2074.786 L -67.788 -2071.916 C -68.906 -2069.482 -70.498 -2068.291 -72.591 -2068.372 L -77.277 -2067.434 C -80.186 -2064.867 -82.364 -2061.734 -83.838 -2058.062 C -84.358 -2057.427 -85.471 -2056.802 -87.206 -2056.216 C -89.681 -2055.273 -90.032 -2053.467 -88.817 -2051.296 C -85.633 -2047.391 -82.402 -2044.325 -79.152 -2042.128 L -81.026 -2039.317 C -84.177 -2038.7 -85.105 -2036.191 -83.838 -2031.819 C -83.29 -2029.807 -83.281 -2027.923 -83.838 -2026.195 C -85.199 -2023.44 -84.565 -2020.931 -81.964 -2018.697 C -80.707 -2016.556 -79.907 -2013.383 -79.591 -2009.207 C -72.376 -1997.991 -68.845 -1988.148 -68.6 -1981.068 C -68.081 -1980.24 -67.214 -1979.652 -66.03 -1979.332 C -64.746 -1978.726 -63.487 -1976.842 -62.281 -1973.709 C -60.964 -1969.872 -59.08 -1967.051 -56.658 -1965.273 C -55.243 -1961.402 -53.359 -1958.893 -51.034 -1957.775 C -45.202 -1949.531 -40.194 -1944.835 -36.038 -1943.716 L -34.164 -1935.281 L -30.707 -1932.455 L -30.839 -1929.116 L -33.226 -1927.783 C -33.735 -1924.637 -32.749 -1922.943 -29.126 -1922.35 C -27.913 -1923.875 -26.771 -1924.74 -25.728 -1924.971 C -24.087 -1925.384 -22.515 -1924.438 -21.042 -1922.159 L -13.881 -1921.208 C -10.385 -1918.08 -6.992 -1916.05 -3.732 -1915.145 C -1.213 -1914.673 0.978 -1914.664 2.814 -1915.145 C 4.635 -1917.219 6.69 -1917.361 8.95 -1915.599 L 9.987 -1913.526 C 10.449 -1912.601 11.661 -1911.929 12.691 -1912.028 L 17.268 -1912.465 C 21.679 -1909.421 24.227 -1909.207 24.884 -1911.85 C 28.148 -1912.19 30.877 -1912.239 33.041 -1912.025 L 34.632 -1909.839 C 36.154 -1907.748 39.22 -1907.081 41.473 -1908.351 L 42.692 -1909.038 C 45.713 -1909.527 50.267 -1908.127 56.326 -1904.864 C 61.409 -1899.895 68.433 -1895.029 77.37 -1890.293 C 77.365 -1888.086 76.768 -1886.569 75.525 -1885.797 C 75.153 -1884.689 75.28 -1883.757 75.876 -1883.029 L 85.454 -1878.416 L 96.569 -1862.688 C 102.296 -1853.757 107.777 -1847.016 112.986 -1842.493 C 111.886 -1838.468 111.895 -1835.334 112.986 -1833.12 C 113.141 -1832.52 114.751 -1830.422 117.701 -1829.166 C 118.009 -1826.266 122.095 -1826.222 122.358 -1828.434 C 122.17 -1829.871 123.116 -1830.799 125.17 -1831.245 C 125.511 -1833.295 126.077 -1834.321 126.84 -1834.35 C 126.137 -1836.195 129.212 -1840.018 130.794 -1845.304 L 129.959 -1850.738 C 132.914 -1855.239 137.576 -1859.042 143.915 -1862.175 C 148.74 -1862.345 151.873 -1863.897 153.288 -1866.861 C 154.547 -1870.122 153.931 -1871.675 151.413 -1871.548 C 146.698 -1870.815 146.698 -1878.636 151.413 -1879.046 C 154.655 -1878.911 157.163 -1877.964 158.911 -1876.234 C 161.834 -1873.877 163.962 -1874.37 165.496 -1876.59 C 165.79 -1877.016 165.884 -1877.756 165.705 -1878.241 L 165.106 -1879.866 C 163.695 -1881.959 164.773 -1883.185 168.05 -1883.6 L 169.939 -1882.985 C 169.509 -1884.078 170.051 -1884.504 171.096 -1884.669 L 171.096 -1886.544 C 171.123 -1887.554 172.07 -1888.482 173.908 -1889.355 L 174.845 -1893.104 C 177.601 -1894.194 179.797 -1895.747 181.406 -1897.791 C 184.408 -1897.479 186.604 -1898.095 187.966 -1899.665 C 189.653 -1902.642 189.306 -1904.131 186.897 -1904.161 C 186.499 -1904.449 187.013 -1904.916 186.634 -1905.128 C 184.413 -1905.348 181.845 -1906.138 180.132 -1905.699 C 179.397 -1905.6 178.67 -1904.936 177.657 -1904.352 C 177.716 -1903.187 176.163 -1902.865 172.97 -1903.414 C 171.643 -1903.707 171.339 -1904.635 172.033 -1906.226 L 177.657 -1909.975 C 179.343 -1911.251 178.718 -1912.198 176.397 -1913.431 L 172.97 -1914.661 C 171.461 -1917.258 170.548 -1919.167 170.202 -1920.417 C 175.043 -1923.649 176.6 -1926.407 174.845 -1928.72 L 167.347 -1935.281 L 146.83 -1934.607 C 145.529 -1937.879 143.005 -1940.593 139.229 -1942.779 C 137.911 -1943.63 135.855 -1943.65 133.034 -1942.867 C 127.17 -1944.497 122.371 -1946.957 118.609 -1950.277 L 113.352 -1950.248 C 111.746 -1953.188 109.647 -1955.581 107.025 -1957.453 L 107.362 -1959.65 L 110.174 -1960.587 C 111.331 -1961.92 110.906 -1963.018 108.871 -1963.911 C 104.811 -1964.596 102.443 -1965.666 101.739 -1967.148 C 100.954 -1971.266 99.225 -1973.795 96.525 -1974.763 C 87.123 -1974.587 82.071 -1985.746 87.68 -1985.893 C 89.633 -1986.719 89.504 -1987.961 87.263 -1989.648 C 85.008 -1993.791 82.688 -1997.946 83.962 -2002.556 C 78.865 -2004.889 82.318 -2009.976 80.044 -2018.879 C 79.023 -2020.17 78.371 -2021.583 76.78 -2022.797 C 71.731 -2022.407 70.121 -2026.122 73.328 -2030.208 C 74.168 -2030.889 75.569 -2027.528 78.307 -2027.132 C 86.91 -2023.44 89.77 -2017.471 88.354 -2011.008 C 87.167 -2006 90.946 -2002.749 98.766 -1999.542 C 100.741 -1999.033 102.939 -1999.332 105.488 -1999.015 C 109.032 -1993.565 113.2 -1993.556 117.965 -1999.015 C 120.25 -2000.539 122.348 -2000.53 124.233 -1999.015 C 125.959 -1998.358 128.363 -1997.716 131.413 -1997.118 C 133.799 -1995.705 128.545 -1992.539 131.76 -1989.701 C 138.622 -1989.37 147.551 -1987.608 148.411 -1980.343 C 149.802 -1977.532 151.626 -1976.379 153.856 -1976.911 L 162.953 -1972.347 C 161.615 -1965.494 163.177 -1963.332 169.104 -1964.57 C 172.25 -1959.815 175.51 -1958.033 178.857 -1959.254 C 179.297 -1954.817 189.314 -1950.16 194.146 -1943.57 C 197.466 -1941.487 202.916 -1941.712 210.731 -1942.559 C 213.093 -1944.118 217.276 -1944.087 223.253 -1942.494 C 224.82 -1942.318 225.14 -1940.898 224.183 -1938.263 C 223.421 -1936.741 224.55 -1935.071 226.152 -1932.74 C 232.65 -1929.878 233.873 -1927.906 230.106 -1925.755 C 224.427 -1922.417 225.842 -1918.585 234.324 -1914.288 C 237.34 -1908.453 240.183 -1904.845 242.824 -1903.493 C 245.952 -1901.278 249.147 -1897.223 252.381 -1891.354 C 252.742 -1889.663 256.796 -1888.85 254.266 -1882.532 C 252.15 -1878.009 246.615 -1877.12 245.626 -1869.904 C 243.292 -1868.488 241.884 -1866.417 241.299 -1863.765 C 243.425 -1859.076 243.153 -1856.238 240.276 -1855.387 C 239.398 -1853.692 239.398 -1852.605 242.66 -1851.32 C 246.469 -1851.997 246.966 -1850.206 245.52 -1846.095 C 245.302 -1844.401 246.713 -1843.244 249.667 -1842.682 C 253.349 -1842.853 255.468 -1841.411 255.92 -1838.425 C 255.171 -1833.691 259.101 -1830.829 262.288 -1829.034 L 272.612 -1822.137 C 275.294 -1824.851 277.006 -1824.407 277.722 -1820.832 C 277.225 -1816.513 284.519 -1814.492 286.276 -1816.864 C 290.913 -1816.144 295.311 -1816.32 299.441 -1817.421 L 315.593 -1812.87 C 321.034 -1812.519 325.295 -1811.311 328.35 -1809.275 C 332.917 -1809.177 337.779 -1808.066 342.907 -1805.969 C 353.094 -1804.938 359.506 -1802.987 362.116 -1800.146 C 365.723 -1797.036 369.422 -1795.257 373.221 -1796.128 C 373.111 -1797.685 372.471 -1798.581 371.273 -1798.841 C 367.674 -1799.967 364.083 -1802.103 368.301 -1802.981 Q 372.274 -1802.148 749.151 -1803.554 L 749.501 -1812.735 C 754.187 -1814.804 754.04 -1816.787 749.032 -1818.71 C 745.952 -1820.463 744.887 -1822.582 745.81 -1825.095 C 747.431 -1827.575 746.366 -1829.694 742.588 -1831.48 C 742.258 -1835.294 743.752 -1837.862 747.04 -1839.212 C 747.882 -1838.575 748.924 -1838.734 750.138 -1839.716 C 751.19 -1848.603 754.621 -1849.151 760.404 -1841.388 C 761.724 -1840.579 763.371 -1840.508 765.317 -1841.204 L 769.19 -1838.325 C 776.113 -1839.216 779.144 -1836.96 778.256 -1831.586 C 782.36 -1832.01 784.601 -1830.342 784.95 -1826.61 C 788.28 -1825.036 794.958 -1827.965 792.774 -1820.795 C 792.167 -1816.443 795.872 -1813.943 803.861 -1813.32 C 804.955 -1810.548 807.464 -1810.031 811.36 -1811.797 C 815.114 -1809.56 816.881 -1812.128 816.632 -1819.53 C 818.584 -1819.842 819.14 -1822.332 818.272 -1827.028 C 819.092 -1830.074 821.249 -1830.455 824.715 -1828.199 C 827.293 -1821.639 834.791 -1827.731 827.176 -1832.534 L 817.328 -1839.085 C 813.117 -1845.187 813.351 -1854.56 802.456 -1848.585 C 799.215 -1848.572 796.685 -1849.526 794.84 -1851.396 C 788.26 -1850.427 783.109 -1852.052 779.376 -1855.146 C 771.062 -1855.568 766.294 -1858.113 765.037 -1863.057 C 760.139 -1869.5 759.661 -1874.573 763.559 -1878.928 C 762.123 -1881.166 760.531 -1881.45 758.756 -1879.807 C 756.53 -1877.347 753.532 -1877.533 749.735 -1880.393 C 738.342 -1892.852 729.447 -1904.851 723.023 -1916.419 C 709.131 -1930.399 701.994 -1941.813 701.583 -1950.687 C 700.646 -1955.725 698.312 -1957.004 694.554 -1954.553 C 693.089 -1954.085 691.4 -1953.958 689.458 -1954.202 C 688.315 -1955.081 687.085 -1953.323 687.349 -1950.687 C 680.5 -1951.573 675.442 -1955.489 672.148 -1962.461 C 663.257 -1976.436 655.535 -1986.27 646.666 -1992.512 C 635.741 -2010.496 616.459 -2030.796 603.764 -2050.022 C 590.284 -2070.012 577.671 -2082.332 575.043 -2094.628 C 573.112 -2101.662 570.07 -2107.749 565.909 -2112.888 C 560.973 -2118.79 560.792 -2122.839 560.529 -2125.311 C 552.735 -2139.344 548.454 -2152.955 547.873 -2165.846 C 545.573 -2166.885 544.02 -2166.251 543.187 -2163.972 C 543.702 -2163.698 543.92 -2149.58 542.174 -2149.972 C 541.888 -2149.684 534.316 -2154.486 534.004 -2154.958 C 532.901 -2156.629 530.647 -2163.337 531.321 -2168.138 C 530.702 -2172.664 538.422 -2173.979 541.027 -2171.895 C 542.806 -2170.152 544.463 -2170.567 545.969 -2173.169 C 545.31 -2177.177 543.804 -2180.587 541.422 -2183.427 C 539.049 -2191.242 537.557 -2196.893 536.919 -2200.408 C 533.207 -2210.139 527.116 -2215.189 518.62 -2215.587 C 518.06 -2213.181 517.949 -2210.47 518.653 -2209.26 L 522.311 -2200.265 C 521.051 -2196.903 520.895 -2194.29 521.817 -2192.456 C 526.132 -2182.176 521.981 -2176.332 514.6 -2174.926 L 503.881 -2174.926 L 497.906 -2170.708 L 491.228 -2171.06 L 486.083 -2169.077 C 484.327 -2165.261 480.518 -2163.78 474.628 -2164.661 C 468.844 -2156.175 463.9 -2154.256 459.771 -2158.934 C 452.858 -2153.72 446.308 -2149.904 445.009 -2158.055 C 439.515 -2159.956 435.484 -2167.515 427.962 -2170.226 C 427.787 -2176.683 425.395 -2178.826 420.758 -2176.683 C 421.988 -2172.817 421.066 -2171.125 414.431 -2174.75 C 410.213 -2172.641 412.322 -2165.788 403.711 -2171.587 C 399.128 -2168.075 396.091 -2167.948 394.573 -2171.235 C 393.577 -2173.344 392.239 -2174.741 390.531 -2175.453 C 387.046 -2175.336 383.592 -2175.685 380.166 -2176.504 C 375.827 -2173.618 372.439 -2174.897 369.97 -2180.374 C 364.77 -2180.909 364.932 -2184.002 370.43 -2189.682 C 372.079 -2190.625 372.169 -2192.258 370.673 -2194.608 C 369.677 -2197.303 366.699 -2200.925 361.71 -2205.504 L 352.284 -2206.562 L 347.652 -2210.952 C 342.636 -2211.388 339.609 -2213.27 338.545 -2216.625 C 337.145 -2217.741 336.932 -2219.918 336.053 -2220.969 C 332.714 -2222.199 332.479 -2224.461 333.134 -2226.517 C 334.774 -2229.268 333.296 -2231.978 328.672 -2234.676 C 325.593 -2230.451 321.853 -2227.923 317.425 -2227.119 C 314.459 -2221.909 311.305 -2221.372 307.935 -2225.538 L 303.718 -2225.362 L 294.579 -2238.191 L 287.901 -2237.664 L 281.751 -2243.111 L 273.491 -2243.287 C 271.783 -2250.621 269.404 -2251.542 261.717 -2246.626 L 241.507 -2256.995 L 178.594 -2219.387 Z " fill="rgb(168,219,168)" vector-effect="non-scaling-stroke" stroke-width="2" stroke="rgb(121,189,154)" stroke-linejoin="miter" stroke-linecap="square" stroke-miterlimit="3"/></g><g><path d=" M -38.383 -2012.252 Q -30.522 -2011.625 -25.966 -2007.693 Q -24.137 -2006.222 -24.708 -2002.349 Q -26.367 -1997.406 -29.424 -1993.862 L -27.538 -1991.347 C -30.953 -1989.076 -32.225 -1985.052 -32.41 -1981.13 L -32.41 -1981.13 L -35.239 -1980.187 Q -37.291 -1981.908 -37.754 -1985.217 Q -42.155 -1985.059 -44.827 -1983.173 Q -44.566 -1977.41 -46.556 -1973.9 Q -48.269 -1975.173 -51.743 -1974.686 L -52.215 -1975.472 L -53.787 -1975.786 L -54.573 -1975.314 L -55.359 -1972.957 L -57.245 -1972.328 C -57.551 -1975.342 -58.322 -1978.369 -59.917 -1980.973 L -59.917 -1980.973 L -58.031 -1986.317 Q -59.073 -1988.575 -58.974 -1991.975 Q -58.611 -1996.957 -56.302 -1999.992 Q -55.673 -1999.049 -53.787 -1999.363 L -49.543 -2002.349 L -47.814 -2006.279 L -44.67 -2004.707 L -44.356 -2007.536 C -43.046 -2007.627 -41.697 -2008.003 -40.741 -2008.951 L -40.741 -2008.951 L -38.383 -2012.252 Z " fill="rgb(207,240,158)" vector-effect="non-scaling-stroke" stroke-width="2" stroke="rgb(121,189,154)" stroke-linejoin="miter" stroke-linecap="square" stroke-miterlimit="3"/></g></g><defs><filter id="xrVbeF8XHLvAQz5SoNc19IZoUMHDoqDx" x="-200%" y="-200%" width="400%" height="400%" filterUnits="objectBoundingBox" color-interpolation-filters="sRGB"><feGaussianBlur xmlns="http://www.w3.org/2000/svg" in="SourceGraphic" stdDeviation="2.146804531419514"/><feOffset xmlns="http://www.w3.org/2000/svg" dx="-10" dy="2" result="pf_100_offsetBlur"/><feFlood xmlns="http://www.w3.org/2000/svg" flood-color="#000000" flood-opacity="0.65"/><feComposite xmlns="http://www.w3.org/2000/svg" in2="pf_100_offsetBlur" operator="in" result="pf_100_dropShadow"/><feBlend xmlns="http://www.w3.org/2000/svg" in="SourceGraphic" in2="pf_100_dropShadow" mode="normal"/></filter></defs><g><path d=" M -56.6 -2039.587 C -59.471 -2043.174 -61.175 -2047.643 -61.175 -2052.486 C -61.175 -2064.291 -51.049 -2073.875 -38.578 -2073.875 C -26.106 -2073.875 -15.981 -2064.291 -15.981 -2052.486 C -15.981 -2047.643 -17.685 -2043.174 -20.555 -2039.587 L -28.816 -2025.28 L -38.578 -2008.372 L -48.34 -2025.28 L -56.6 -2039.587 Z  M -48.207 -2055.361 C -48.207 -2060.676 -43.892 -2064.991 -38.578 -2064.991 C -33.264 -2064.991 -28.949 -2060.676 -28.949 -2055.361 C -28.949 -2050.047 -33.264 -2045.732 -38.578 -2045.732 C -43.892 -2045.732 -48.207 -2050.047 -48.207 -2055.361 Z " fill-rule="evenodd" fill="rgb(200,28,21)"/><defs><filter id="eA5sVcV10SiT4QSEO8EldtTXSDGSSkSj" x="-200%" y="-200%" width="400%" height="400%" filterUnits="objectBoundingBox" color-interpolation-filters="sRGB"><feGaussianBlur xmlns="http://www.w3.org/2000/svg" stdDeviation="8.587218125678056"/></filter></defs><g filter="url(#eA5sVcV10SiT4QSEO8EldtTXSDGSSkSj)"><ellipse vector-effect="non-scaling-stroke" cx="-38.57797401257503" cy="-2007.8580486832298" rx="18.61620774220431" ry="7.703258376084477" fill="rgb(23,23,23)" fill-opacity="0.3"/></g></g></g></svg>