<?xml version="1.0" encoding="UTF-8" standalone="no"?><!-- Generator: Gravit.io --><svg xmlns="http://www.w3.org/2000/svg" xmlns:xlink="http://www.w3.org/1999/xlink" style="isolation:isolate" viewBox="141.69 -2164.774 691.81 371.867" width="691.81pt" height="371.867pt"><defs><clipPath id="_clipPath_nmKyuZr6opWxERbRH55S5c8KEagK3q37"><rect x="141.69" y="-2164.774" width="691.81" height="371.867"/></clipPath></defs><g clip-path="url(#_clipPath_nmKyuZr6opWxERbRH55S5c8KEagK3q37)"><rect x="141.69" y="-2164.774" width="691.81" height="371.867" style="fill:rgb(0,0,0)" fill-opacity="0"/><g><g><path d=" M 353.686 -2105.647 L 263.197 -2143.95 C 252.247 -2142.51 244.256 -2144.331 239.204 -2149.434 C 226.607 -2148.492 225.407 -2157.404 220.694 -2161.774 L 209.041 -2161.774 L 193.274 -2133.667 C 203.299 -2128.697 199.272 -2117.043 190.531 -2125.441 C 188.062 -2127.009 186.469 -2126.088 185.733 -2122.699 C 182.601 -2121.857 182.151 -2120.479 184.362 -2118.586 C 189.376 -2117.181 192.81 -2114.66 194.645 -2111.045 C 195.152 -2108.728 194.702 -2107.808 193.274 -2108.303 C 190.949 -2107.737 190.27 -2106.588 191.217 -2104.875 C 193.531 -2103.504 190.446 -2099.82 188.475 -2101.448 L 186.333 -2103.59 L 176.821 -2104.19 C 174.388 -2103.33 173.71 -2102.409 174.764 -2101.448 C 177.335 -2100.077 177.421 -2097.42 174.764 -2098.02 C 171.108 -2097.677 169.744 -2098.813 170.651 -2101.448 C 171.337 -2103.676 170.658 -2104.983 168.595 -2105.39 C 165.11 -2104.305 162.575 -2104.441 160.968 -2105.818 C 157.951 -2106.137 157.072 -2105.13 158.312 -2102.819 C 161.282 -2101.791 161.289 -2100.87 158.312 -2100.077 L 155.771 -2099.371 C 155.38 -2098.211 154.177 -2097.868 152.142 -2098.363 L 145.972 -2096.649 C 144.259 -2095.392 144.265 -2094.243 145.972 -2093.221 C 149.099 -2094.426 152.076 -2093.962 154.884 -2091.85 C 158.546 -2091.456 160.838 -2090.306 161.739 -2088.423 L 163.111 -2086.366 C 164.253 -2085.109 165.174 -2085.103 165.853 -2086.366 C 165.396 -2087.166 165.859 -2087.616 167.224 -2087.737 L 169.966 -2086.366 C 170.823 -2085.205 171.972 -2085.198 173.393 -2086.366 C 173.965 -2087.852 174.657 -2087.845 175.45 -2086.366 Q 175.766 -2084.286 175.45 -2084.31 Q 175.134 -2084.334 172.708 -2081.568 C 176.794 -2075.75 182.16 -2074.408 182.991 -2076.769 C 184.905 -2078.417 186.512 -2078.867 187.789 -2078.14 L 194.645 -2076.083 C 196.08 -2075.823 197.915 -2073.531 200.129 -2069.228 L 200.814 -2065.801 C 198.529 -2063.744 198.079 -2061.909 199.443 -2060.316 C 199.205 -2058.829 199.669 -2056.994 200.814 -2054.832 C 201.733 -2052.602 201.74 -2050.539 200.814 -2048.662 L 197.387 -2044.549 L 196.701 -2041.122 C 195.135 -2040.573 194.133 -2040.174 193.675 -2039.033 C 192.976 -2036.036 193.952 -2034.859 197.387 -2036.323 C 198.532 -2041.027 200.367 -2042.848 202.871 -2041.807 C 205.365 -2041.379 206.286 -2040.001 205.613 -2037.694 C 205.381 -2036.603 203.896 -2036.246 203.896 -2036.246 C 203.011 -2036.348 201.956 -2034.931 201.542 -2033.086 L 201.5 -2032.895 C 200.956 -2032.019 200.169 -2031.896 199.114 -2032.55 C 198.371 -2032.95 197.446 -2032.886 196.573 -2032.724 C 196.244 -2031.639 196.294 -2030.546 196.701 -2029.468 C 195.386 -2028.187 194.022 -2027.723 192.588 -2028.097 C 190.998 -2025.909 189.405 -2024.531 187.789 -2023.984 C 187.761 -2023.241 187.082 -2023.006 185.733 -2023.298 C 184.814 -2022.257 183.606 -2021.379 182.091 -2020.684 C 181.031 -2020.311 180.195 -2020.49 179.563 -2021.241 L 175.45 -2021.241 C 175.358 -2019.505 174.451 -2018.127 172.708 -2017.128 L 171.23 -2017.321 C 170.287 -2017.043 169.837 -2016.614 170.266 -2015.607 L 171.401 -2014.579 Q 171.226 -2011.277 171.551 -2011.109 C 172.794 -2010.466 174.293 -2009.009 176.542 -2006.353 L 176.821 -2002.047 L 173.715 -2001.618 C 173.112 -2001.581 172.815 -2000.954 172.986 -1999.883 L 173.479 -1997.784 C 172.661 -1996.004 171.497 -1995.133 169.966 -1995.192 L 166.538 -1994.506 C 164.411 -1992.628 162.818 -1990.336 161.739 -1987.651 C 161.359 -1987.186 160.545 -1986.73 159.276 -1986.301 C 157.466 -1985.611 157.209 -1984.29 158.098 -1982.702 C 160.426 -1979.846 162.79 -1977.604 165.167 -1975.997 L 163.796 -1973.94 C 161.492 -1973.489 160.813 -1971.654 161.739 -1968.456 C 162.14 -1966.985 162.147 -1965.607 161.739 -1964.343 C 160.744 -1962.328 161.208 -1960.493 163.111 -1958.859 C 164.029 -1957.293 164.615 -1954.972 164.846 -1951.918 C 170.123 -1943.714 172.706 -1936.515 172.885 -1931.336 C 173.265 -1930.731 173.898 -1930.301 174.764 -1930.067 C 175.704 -1929.624 176.625 -1928.246 177.507 -1925.954 C 178.47 -1923.148 179.848 -1921.084 181.62 -1919.784 C 182.655 -1916.953 184.032 -1915.118 185.733 -1914.3 C 189.999 -1908.27 193.662 -1904.835 196.701 -1904.017 L 198.072 -1897.847 L 200.6 -1895.78 L 200.504 -1893.338 L 198.758 -1892.363 C 198.386 -1890.062 199.107 -1888.823 201.757 -1888.389 C 202.644 -1889.505 203.479 -1890.137 204.242 -1890.306 C 205.443 -1890.609 206.592 -1889.916 207.67 -1888.25 L 212.907 -1887.554 C 215.464 -1885.266 217.946 -1883.781 220.33 -1883.119 C 222.173 -1882.774 223.776 -1882.767 225.118 -1883.119 C 226.45 -1884.637 227.953 -1884.74 229.606 -1883.451 L 230.364 -1881.935 C 230.703 -1881.259 231.589 -1880.767 232.342 -1880.839 L 235.69 -1881.159 C 238.916 -1878.933 240.78 -1878.776 241.26 -1880.709 C 243.648 -1880.958 245.644 -1880.994 247.226 -1880.838 L 248.39 -1879.239 C 249.504 -1877.709 251.746 -1877.221 253.394 -1878.15 L 254.285 -1878.653 C 256.495 -1879.011 259.826 -1877.986 264.257 -1875.6 C 267.975 -1871.965 273.113 -1868.406 279.65 -1864.942 C 279.646 -1863.328 279.21 -1862.218 278.3 -1861.654 C 278.028 -1860.843 278.121 -1860.162 278.557 -1859.629 L 285.562 -1856.255 L 293.692 -1844.751 C 297.88 -1838.219 301.89 -1833.289 305.699 -1829.98 C 304.895 -1827.036 304.902 -1824.744 305.699 -1823.125 C 305.813 -1822.686 306.991 -1821.151 309.148 -1820.233 C 309.373 -1818.112 312.362 -1818.08 312.555 -1819.697 C 312.417 -1820.749 313.109 -1821.427 314.611 -1821.754 C 314.86 -1823.253 315.274 -1824.003 315.832 -1824.025 C 315.318 -1825.374 317.568 -1828.17 318.724 -1832.037 L 318.114 -1836.011 C 320.275 -1839.303 323.685 -1842.085 328.322 -1844.376 C 331.85 -1844.5 334.142 -1845.636 335.177 -1847.804 C 336.098 -1850.189 335.648 -1851.325 333.806 -1851.232 C 330.357 -1850.696 330.357 -1856.416 333.806 -1856.716 C 336.177 -1856.617 338.012 -1855.925 339.29 -1854.659 C 341.428 -1852.935 342.984 -1853.296 344.106 -1854.92 C 344.321 -1855.231 344.39 -1855.772 344.259 -1856.127 L 343.821 -1857.316 C 342.789 -1858.847 343.577 -1859.743 345.974 -1860.047 L 347.356 -1859.597 C 347.042 -1860.397 347.438 -1860.708 348.202 -1860.829 L 348.202 -1862.2 C 348.222 -1862.939 348.915 -1863.618 350.258 -1864.257 L 350.944 -1866.999 C 352.96 -1867.795 354.566 -1868.931 355.743 -1870.426 C 357.939 -1870.198 359.545 -1870.648 360.541 -1871.797 C 361.775 -1873.974 361.521 -1875.064 359.759 -1875.086 C 359.468 -1875.296 359.844 -1875.637 359.567 -1875.793 C 357.942 -1875.954 356.064 -1876.532 354.811 -1876.21 C 354.274 -1876.138 353.741 -1875.653 353.001 -1875.225 C 353.044 -1874.373 351.908 -1874.138 349.573 -1874.539 C 348.602 -1874.754 348.38 -1875.432 348.887 -1876.596 L 353.001 -1879.338 C 354.234 -1880.271 353.777 -1880.964 352.079 -1881.866 L 349.573 -1882.766 C 348.469 -1884.665 347.801 -1886.061 347.549 -1886.975 C 351.089 -1889.339 352.227 -1891.357 350.944 -1893.049 L 345.46 -1897.847 L 330.453 -1897.354 C 329.502 -1899.747 327.656 -1901.733 324.894 -1903.331 C 323.93 -1903.954 322.426 -1903.969 320.363 -1903.396 C 316.074 -1904.588 312.564 -1906.387 309.813 -1908.816 L 305.967 -1908.794 C 304.793 -1910.945 303.257 -1912.695 301.34 -1914.064 L 301.586 -1915.671 L 303.643 -1916.356 C 304.489 -1917.331 304.178 -1918.135 302.69 -1918.788 C 299.72 -1919.289 297.988 -1920.071 297.473 -1921.155 C 296.899 -1924.167 295.635 -1926.017 293.66 -1926.725 C 286.783 -1926.596 283.088 -1934.758 287.19 -1934.865 C 288.619 -1935.47 288.524 -1936.378 286.885 -1937.612 C 285.236 -1940.642 283.539 -1943.681 284.471 -1947.053 C 280.743 -1948.76 283.268 -1952.48 281.606 -1958.992 C 280.858 -1959.936 280.382 -1960.97 279.218 -1961.858 C 275.525 -1961.572 274.347 -1964.289 276.693 -1967.278 C 277.308 -1967.777 278.332 -1965.318 280.335 -1965.029 C 286.627 -1962.328 288.719 -1957.962 287.683 -1953.235 C 286.815 -1949.572 289.579 -1947.194 295.299 -1944.848 C 296.743 -1944.477 298.351 -1944.695 300.215 -1944.463 C 302.807 -1940.477 305.856 -1940.47 309.341 -1944.463 C 311.012 -1945.578 312.547 -1945.571 313.926 -1944.463 C 315.188 -1943.983 316.946 -1943.513 319.177 -1943.076 C 320.923 -1942.043 317.08 -1939.727 319.431 -1937.65 C 324.45 -1937.409 330.981 -1936.12 331.61 -1930.806 C 332.627 -1928.751 333.961 -1927.907 335.592 -1928.296 L 342.246 -1924.958 C 341.268 -1919.946 342.41 -1918.364 346.745 -1919.27 C 349.046 -1915.791 351.431 -1914.488 353.879 -1915.382 C 354.2 -1912.136 361.527 -1908.73 365.062 -1903.91 C 367.49 -1902.386 371.476 -1902.551 377.192 -1903.171 C 378.919 -1904.311 381.979 -1904.288 386.35 -1903.123 C 387.497 -1902.994 387.731 -1901.956 387.031 -1900.028 C 386.473 -1898.915 387.299 -1897.694 388.471 -1895.989 C 393.224 -1893.895 394.118 -1892.453 391.363 -1890.879 C 387.209 -1888.438 388.244 -1885.636 394.448 -1882.493 C 396.654 -1878.225 398.733 -1875.586 400.665 -1874.597 C 402.953 -1872.977 405.29 -1870.011 407.655 -1865.719 C 407.919 -1864.481 410.885 -1863.887 409.034 -1859.266 C 407.486 -1855.958 403.437 -1855.307 402.714 -1850.029 C 401.007 -1848.994 399.977 -1847.479 399.549 -1845.54 C 401.105 -1842.11 400.906 -1840.034 398.802 -1839.411 C 398.159 -1838.172 398.159 -1837.376 400.545 -1836.437 C 403.331 -1836.932 403.695 -1835.622 402.637 -1832.615 C 402.477 -1831.376 403.509 -1830.53 405.67 -1830.119 C 408.363 -1830.244 409.913 -1829.189 410.244 -1827.005 C 409.696 -1823.543 412.57 -1821.45 414.901 -1820.137 L 422.453 -1815.092 C 424.414 -1817.077 425.666 -1816.752 426.19 -1814.137 C 425.827 -1810.978 431.161 -1809.5 432.446 -1811.236 C 435.838 -1810.708 439.055 -1810.837 442.076 -1811.643 L 453.889 -1808.314 C 457.869 -1808.057 460.986 -1807.174 463.22 -1805.685 C 466.561 -1805.613 470.117 -1804.8 473.867 -1803.266 C 481.318 -1802.512 486.008 -1801.086 487.917 -1799.007 C 490.555 -1796.733 493.261 -1795.431 496.039 -1796.068 C 495.959 -1797.208 495.491 -1797.862 494.615 -1798.053 C 491.982 -1798.876 489.356 -1800.439 492.44 -1801.081 Q 495.347 -1800.472 772.5 -1803.5 L 771.256 -1808.215 C 774.683 -1809.729 774.576 -1811.179 770.913 -1812.585 C 768.66 -1813.867 767.881 -1815.417 768.557 -1817.255 C 769.742 -1819.069 768.963 -1820.619 766.2 -1821.925 C 765.959 -1824.715 767.051 -1826.594 769.456 -1827.581 C 770.072 -1827.115 770.834 -1827.231 771.722 -1827.95 C 772.491 -1834.45 775.001 -1834.85 779.231 -1829.172 C 780.196 -1828.581 781.401 -1828.529 782.824 -1829.038 L 785.657 -1826.932 C 790.72 -1827.583 792.937 -1825.934 792.288 -1822.003 C 795.29 -1822.313 796.929 -1821.093 797.184 -1818.364 C 799.619 -1817.212 804.504 -1819.355 802.907 -1814.11 C 802.462 -1810.928 805.172 -1809.098 811.016 -1808.643 C 811.816 -1806.615 813.651 -1806.237 816.5 -1807.529 C 819.247 -1805.893 820.539 -1807.771 820.356 -1813.185 C 821.785 -1813.414 822.191 -1815.235 821.556 -1818.669 C 822.156 -1820.897 823.734 -1821.176 826.269 -1819.526 C 828.154 -1814.727 833.638 -1819.183 828.069 -1822.697 L 820.866 -1827.488 C 817.786 -1831.951 817.957 -1838.806 809.988 -1834.436 C 807.617 -1834.427 805.767 -1835.125 804.418 -1836.492 C 799.605 -1835.784 795.837 -1836.972 793.107 -1839.235 C 787.026 -1839.544 783.539 -1841.405 782.62 -1845.022 C 779.037 -1849.734 778.687 -1853.445 781.539 -1856.63 C 780.488 -1858.267 779.324 -1858.474 778.025 -1857.273 C 776.397 -1855.473 774.205 -1855.609 771.427 -1857.701 C 763.094 -1866.814 756.588 -1875.59 751.89 -1884.051 C 741.729 -1894.277 736.509 -1902.625 736.208 -1909.115 C 735.523 -1912.8 733.816 -1913.736 731.067 -1911.943 C 729.996 -1911.601 728.76 -1911.508 727.339 -1911.686 C 726.504 -1912.329 725.604 -1911.044 725.797 -1909.115 C 720.787 -1909.764 717.088 -1912.627 714.679 -1917.727 C 708.176 -1927.949 702.528 -1935.141 696.041 -1939.707 C 688.05 -1952.86 673.947 -1967.709 664.662 -1981.771 C 654.802 -1996.391 645.577 -2005.402 643.655 -2014.396 C 642.243 -2019.541 640.018 -2023.993 636.974 -2027.752 C 633.364 -2032.068 633.232 -2035.03 633.039 -2036.838 C 627.339 -2047.102 624.207 -2057.057 623.782 -2066.486 C 622.1 -2067.246 620.964 -2066.782 620.355 -2065.115 C 620.732 -2064.915 620.891 -2054.589 619.614 -2054.875 C 619.405 -2054.665 613.866 -2058.177 613.638 -2058.522 C 612.832 -2059.745 611.183 -2064.651 611.676 -2068.162 C 611.223 -2071.472 616.87 -2072.435 618.775 -2070.91 C 620.076 -2069.635 621.288 -2069.939 622.39 -2071.842 C 621.908 -2074.773 620.806 -2077.267 619.064 -2079.345 C 617.328 -2085.061 616.237 -2089.194 615.77 -2091.765 C 613.055 -2098.882 608.601 -2102.576 602.387 -2102.867 C 601.977 -2101.108 601.895 -2099.125 602.411 -2098.24 L 605.086 -2091.66 C 604.164 -2089.201 604.05 -2087.291 604.724 -2085.948 C 607.881 -2078.43 604.845 -2074.155 599.446 -2073.127 L 591.606 -2073.127 L 587.235 -2070.042 L 582.351 -2070.299 L 578.588 -2068.849 C 577.304 -2066.058 574.518 -2064.974 570.21 -2065.619 C 565.979 -2059.412 562.364 -2058.009 559.343 -2061.43 C 554.287 -2057.617 549.496 -2054.825 548.546 -2060.788 C 544.528 -2062.178 541.579 -2067.707 536.078 -2069.689 C 535.95 -2074.412 534.2 -2075.98 530.808 -2074.412 C 531.708 -2071.585 531.034 -2070.347 526.181 -2072.999 C 523.096 -2071.456 524.639 -2066.443 518.34 -2070.685 C 514.988 -2068.116 512.767 -2068.023 511.657 -2070.428 C 510.928 -2071.97 509.95 -2072.992 508.7 -2073.513 C 506.151 -2073.427 503.625 -2073.682 501.119 -2074.281 C 497.945 -2072.17 495.467 -2073.106 493.662 -2077.112 C 489.858 -2077.503 489.977 -2079.766 493.998 -2083.92 C 495.204 -2084.61 495.27 -2085.804 494.176 -2087.523 C 493.447 -2089.494 491.269 -2092.143 487.62 -2095.492 L 480.726 -2096.266 L 477.337 -2099.477 C 473.669 -2099.796 471.455 -2101.172 470.676 -2103.627 C 469.653 -2104.443 469.497 -2106.035 468.854 -2106.803 C 466.412 -2107.703 466.24 -2109.358 466.719 -2110.862 C 467.919 -2112.874 466.838 -2114.856 463.456 -2116.829 C 461.204 -2113.739 458.468 -2111.89 455.229 -2111.302 C 453.06 -2107.491 450.753 -2107.098 448.288 -2110.145 L 445.204 -2110.017 L 438.52 -2119.4 L 433.635 -2119.014 L 429.137 -2122.999 L 423.095 -2123.127 C 421.846 -2128.492 420.106 -2129.165 414.484 -2125.57 L 399.702 -2133.153 L 353.686 -2105.647 Z " fill="rgb(168,219,168)" vector-effect="non-scaling-stroke" stroke-width="2" stroke="rgb(121,189,154)" stroke-linejoin="miter" stroke-linecap="square" stroke-miterlimit="3"/></g><g><path d=" M 194.986 -1954.145 Q 200.736 -1953.687 204.068 -1950.811 Q 205.406 -1949.734 204.988 -1946.902 Q 203.775 -1943.287 201.539 -1940.694 L 202.919 -1938.854 C 200.42 -1937.194 199.49 -1934.251 199.355 -1931.382 L 199.355 -1931.382 L 197.285 -1930.692 Q 195.785 -1931.951 195.446 -1934.371 Q 192.227 -1934.255 190.272 -1932.876 Q 190.464 -1928.661 189.008 -1926.093 Q 187.755 -1927.025 185.214 -1926.668 L 184.869 -1927.243 L 183.72 -1927.473 L 183.145 -1927.128 L 182.57 -1925.404 L 181.19 -1924.944 C 180.966 -1927.148 180.402 -1929.363 179.236 -1931.267 L 179.236 -1931.267 L 180.615 -1935.176 Q 179.853 -1936.827 179.926 -1939.314 Q 180.191 -1942.958 181.88 -1945.177 Q 182.34 -1944.488 183.72 -1944.718 L 186.824 -1946.902 L 188.088 -1949.776 L 190.387 -1948.626 L 190.617 -1950.696 C 191.576 -1950.762 192.562 -1951.037 193.262 -1951.73 L 193.262 -1951.73 L 194.986 -1954.145 Z " fill="rgb(207,240,158)" vector-effect="non-scaling-stroke" stroke-width="2" stroke="rgb(121,189,154)" stroke-linejoin="miter" stroke-linecap="square" stroke-miterlimit="3"/></g></g><g><path d=" M 178.525 -1977.712 C 175.654 -1981.299 173.95 -1985.768 173.95 -1990.611 C 173.95 -2002.416 184.076 -2012 196.547 -2012 C 209.019 -2012 219.144 -2002.416 219.144 -1990.611 C 219.144 -1985.768 217.44 -1981.299 214.57 -1977.712 L 206.309 -1963.405 L 196.547 -1946.497 L 186.785 -1963.405 L 178.525 -1977.712 Z  M 186.918 -1993.486 C 186.918 -1998.801 191.233 -2003.116 196.547 -2003.116 C 201.861 -2003.116 206.176 -1998.801 206.176 -1993.486 C 206.176 -1988.172 201.861 -1983.857 196.547 -1983.857 C 191.233 -1983.857 186.918 -1988.172 186.918 -1993.486 Z " fill-rule="evenodd" fill="rgb(200,28,21)"/><defs><filter id="hJRZPww4ET0OMhCimdSJZp1k5zY94ZbF" x="-200%" y="-200%" width="400%" height="400%" filterUnits="objectBoundingBox" color-interpolation-filters="sRGB"><feGaussianBlur xmlns="http://www.w3.org/2000/svg" stdDeviation="8.587218125678056"/></filter></defs><g filter="url(#hJRZPww4ET0OMhCimdSJZp1k5zY94ZbF)"><ellipse vector-effect="non-scaling-stroke" cx="196.54702598742497" cy="-1945.9830486832295" rx="18.616207742204324" ry="7.703258376084477" fill="rgb(23,23,23)" fill-opacity="0.3"/></g></g></g></svg>